<svg xmlns="http://www.w3.org/2000/svg" viewBox="180 195 905 905">
  <!-- mascot body (from logo.svg) -->
  <path d="M 210 540 A 410 146 0.5 0 0 1030 540 L 1030 540 A 416 416 0 1 1 209 540 Z" fill="rgb(186, 118, 56)" stroke="rgb(64, 42, 18)" stroke-width="36"/>
  <ellipse cx="620" cy="540" rx="410" ry="146" transform="rotate(0.5 620 540)" fill="rgb(254, 254, 254)" stroke="rgb(64, 42, 18)" stroke-width="36"/>
  <ellipse cx="615" cy="542" rx="336" ry="90" transform="rotate(0.6 615 542)" fill="rgb(252, 234, 208)"/>
  <g stroke="rgb(64, 42, 18)" stroke-width="24" stroke-linejoin="round">
    <path d="M 870 256 Q 1053 376 892 523 Q 795 396 870 256 Z" fill="rgb(98, 175, 41)"/>
    <path d="M 1069 341 Q 1060 509 892 523 Q 898 352 1069 341 Z" fill="rgb(98, 175, 41)"/>
  </g>

  <!-- excited face — arched eyes -->
  <path d="M 438 760 Q 487 720 536 760" fill="none" stroke="rgb(64, 42, 18)" stroke-width="28" stroke-linecap="round"/>
  <path d="M 700 760 Q 749 720 798 760" fill="none" stroke="rgb(64, 42, 18)" stroke-width="28" stroke-linecap="round"/>
  <!-- modest open grin -->
  <path
    d="M 562 828 C 575 878 594 892 618 894 C 642 892 661 878 674 828 C 652 838 618 842 584 838 Z"
    fill="rgb(38, 24, 10)"
    stroke="rgb(64, 42, 18)"
    stroke-width="28"
    stroke-linejoin="round"
  />
  <ellipse cx="618" cy="864" rx="34" ry="22" fill="rgb(232, 106, 106)"/>
</svg>
