<svg xmlns="http://www.w3.org/2000/svg" viewBox="150 200 950 800">
  <!-- COCONUT BOWL — ICON variant (tuned to read small) -->
  <path d="M 210 540 A 410 146 0.5 0 0 1030 540 L 1030 540 A 416 416 0 1 1 209 540 Z" fill="rgb(163, 97, 47)" stroke="rgb(64, 42, 18)" stroke-width="36"/>
  <ellipse cx="620" cy="540" rx="410" ry="146" transform="rotate(0.5 620 540)" fill="rgb(254, 254, 254)" stroke="rgb(64, 42, 18)" stroke-width="36"/>
  <ellipse cx="615" cy="542" rx="336" ry="90" transform="rotate(0.6 615 542)" fill="rgb(252, 234, 208)"/>
  <g stroke="rgb(64, 42, 18)" stroke-width="24" stroke-linejoin="round">
    <path d="M 870 256 Q 1053 376 892 523 Q 795 396 870 256 Z" fill="rgb(98, 175, 41)"/><path d="M 1069 341 Q 1060 509 892 523 Q 898 352 1069 341 Z" fill="rgb(98, 175, 41)"/>
  </g>
  <!-- bold face -->
  <ellipse cx="487" cy="795" rx="48" ry="56" fill="rgb(38, 24, 10)"/>
  <ellipse cx="749" cy="795" rx="48" ry="56" fill="rgb(38, 24, 10)"/>
  <path d="M 566 834 A 63 63 0 0 0 670 833" fill="none" stroke="rgb(64, 42, 18)" stroke-width="34" stroke-linecap="round"/>
  <circle cx="492" cy="776" r="18" fill="rgb(254, 254, 254)"/><circle cx="754" cy="776" r="18" fill="rgb(254, 254, 254)"/>
</svg>